<svg id="e5ee58f4-2122-4475-8ca9-727e95042377" data-name="Layer 1" xmlns="http://www.w3.org/2000/svg" width="300" height="300" viewBox="0 0 300 300"><path d="M284.11,135.69a8.27,8.27,0,0,1-5.69-2.26C260,116,226.38,97.36,193,95c-31-2.22-49.68,2.18-79.93,18.85-7.39,4.08-20.41,15-24.8,18.92a8.29,8.29,0,1,1-11-12.43c.7-.62,17.28-15.22,27.78-21C138.23,81,159.89,76,194.21,78.43c37.43,2.68,75,23.5,95.59,42.94a8.29,8.29,0,0,1-5.69,14.32Z"/><path d="M280.3,133.18l.21.09A.39.39,0,0,0,280.3,133.18Z" style="fill:#231f20"/><path d="M284.11,137.09l-.82-.11c-.45-.06-1-.15-1.32-.16-.66-.55-2.09-.88-3.48-1.81a8.48,8.48,0,0,1-1-.76q-.42-.34-.81-.72a7.47,7.47,0,0,1-.72-.78l-.16-.2-.07-.1,0,0-.64-.6c-1-.92-2-1.75-3-2.61s-2-1.71-3-2.5l-2.39-1.07a159.38,159.38,0,0,0-20.55-12.94c-6.87-3.67-13.11-6.29-16.39-7.86l3.18,1.31c.78.11-2.76-1.49-7.76-3.18-1.23-.46-2.58-.87-4-1.28s-2.78-.88-4.2-1.26c-2.83-.71-5.59-1.51-8-2A84.9,84.9,0,0,0,199.92,97a4.2,4.2,0,0,0-1.44-.06,2.35,2.35,0,0,0,.61.12l1.71.32c-.63-.1-1.26-.22-1.9-.31l-2-.21-4-.42c-2.7-.17-5.48-.4-8.3-.47a134,134,0,0,0-17.4.38,102.74,102.74,0,0,0-17.63,3.17,126.42,126.42,0,0,0-16.84,6c-5.42,2.31-10.6,4.93-15.51,7.53l-3.64,2c-1.15.65-2.27,1.34-3.37,2.06-2.19,1.45-4.28,2.95-6.27,4.44-4,3-7.63,5.92-10.88,8.59l-4.64,3.87a9.33,9.33,0,0,1-2.71,1.4,9.69,9.69,0,0,1-2.77.44,9.55,9.55,0,0,1-4.19-.87,9.36,9.36,0,0,1-5.11-10.53,9.08,9.08,0,0,1,1.77-3.7,11.25,11.25,0,0,1,1.39-1.44L78.25,118c1.82-1.59,3.64-3.14,5.46-4.67,3.64-3,7.3-6,11.06-8.78,1.88-1.4,3.79-2.75,5.75-4.06s4-2.5,6.09-3.59a210.07,210.07,0,0,1,26-12.35,122.27,122.27,0,0,1,30.86-7.49l-.52.13c3.8-.45,8.58-.7,13.58-.78,2.51,0,5.07,0,7.6.13l3.75.15,3.63.25c2.37.13,4.63.41,6.67.65l2.89.35c.9.13,1.73.31,2.49.44,3,.58,4.89,1,4.85,1.1a174,174,0,0,1,60.73,24.21,144.41,144.41,0,0,1,20.77,15.93l-3.19-2.75-3.3-2.61c3,2.45,4.9,4.22,6.19,5.38l.87.76c.25.23.48.49.68.68.37.41.6.71.76.9.58.82.12-.06.58.62.1.21-.07.11-.14.12.13.63.54.84.76,1.3l-.23-.13a22.38,22.38,0,0,1,.68,3.7,7.71,7.71,0,0,1-.82,4.19c.18-.48-.11-.31-.27-.18a4.38,4.38,0,0,1-1.15,2.41,11.42,11.42,0,0,1-2,1.83c.16-.2.33-.38.47-.59a2.75,2.75,0,0,1-1.85.93,6.05,6.05,0,0,0-2,.51,9.57,9.57,0,0,0,1.31,0c-.89.2-1.63.41-1.38.62-1.1,0-.2-.35-1.77-.32a7.57,7.57,0,0,0,3.46-3.78c.63-.17-.46.67.31.28a7.28,7.28,0,0,0,1.24-1.43l-.05.1c.39-.84,1.14-1.64,1.68-2.78a4.49,4.49,0,0,0,.29-3.64l0,.09c.15,0,.2-.49,0-.85-.14-.09-.09.17-.16.42a8.16,8.16,0,0,0-1.11-1.88,1,1,0,0,0-.13-.16l-.07-.08,0,0,0,0-.26-.33c-.21-.21-.37-.41-.63-.64l-.77-.68-1.55-1.4-1.57-1.41-1.68-1.37a149.81,149.81,0,0,0-16.28-11.81c5.75,3.6,3.14,1.86-1-.92-2.12-1.33-4.65-2.9-6.75-4.14s-3.74-2.16-4-2.39c-3.71-1.86-2.71-1.2-2.81-1.18a11,11,0,0,1-1.73-.76l-2.89-1.38-5.06-2.24a170.86,170.86,0,0,0-18-6.77c-3-1-6-1.73-9-2.55-1.48-.4-3-.67-4.46-1s-2.94-.7-4.43-.9c-3-.48-5.87-1-8.79-1.28-1.46-.14-2.9-.33-4.34-.44l-4.33-.29c-5.73-.3-11.32-.48-16.75-.23-2.2.1-4.56.4-6.88.59s-4.57.56-6.57.88-3.74.64-5,1a11.43,11.43,0,0,0-2.18.64A127.88,127.88,0,0,0,132.66,88a181.92,181.92,0,0,0-16.77,7.53l-4.17,2.14L107.48,100c-1.46.77-2.85,1.55-4.26,2.45s-2.84,1.85-4.29,2.86c-5.77,4.09-11.92,9-18.8,14.93l-.78.53a9.19,9.19,0,0,0-2.3,2.71,6.73,6.73,0,0,0-.7,3.82,6.56,6.56,0,0,0,1.81,3.83,6.58,6.58,0,0,0,8.14,1.06,8,8,0,0,0,.87-.62l1-.84,1.89-1.6,5.78-4.87c-.71.75-3.69,3.29-2.86,2.75,4.26-3.58,8.58-7.08,13.11-10.38a55.23,55.23,0,0,0-5.79,4.71c-.12.17.29-.09,1.42-.9s3-2.17,5.8-4.14,4.28-2.89,4.62-3.13-.3.1-1.15.58c-1.67,1-4,2.54-1.16.5,1.28-.68,2.65-1.32,4-1.87,4.71-2.6,7.76-4.23,8.11-4.55.18-.16-.32,0-1.59.6-.64.3-1.48.69-2.52,1.2l-3.72,2A198.07,198.07,0,0,1,139,99.86a121.61,121.61,0,0,1,13.07-4,107.77,107.77,0,0,1,13.35-2.32,151,151,0,0,1,26.35-.31,120.21,120.21,0,0,1,25,4.3l-3.44-.66a149.19,149.19,0,0,1,27.83,10,146,146,0,0,1,20.82,12c.47.17,4.19,2.68,1.86.93,9,6.14,9.18,6.86,9.8,7.4a21.51,21.51,0,0,0,2,1.84c.57.51,2.13,1.93,1.8,1.6a3.46,3.46,0,0,0,.37.21l-.25-.13-.12-.07-.05,0c-.09-.08.12.12-.25-.21l-1.45-1.25-1.24-1c-.73-.57-1.25-1-1.47-1.09,1.44,1.17,2.88,2.32,4.25,3.58l.3.22.54.39,1.08.77a2.79,2.79,0,0,0,1.63,1.75c.08-.07-.09-.32-.28-.46.19.08.37.15.56.21a5.37,5.37,0,0,0,.24.57,5.86,5.86,0,0,0,.94-.06l-.08.34c.66.1,1-.32,1.45-.24A20.83,20.83,0,0,0,284.11,137.09Z" style="fill:#231f20"/><polygon points="282.26 133.91 282.25 133.99 282.42 133.96 282.26 133.91" style="fill:#231f20"/><polygon points="275.94 133.03 275.53 132.82 276.23 133.32 275.94 133.03" style="fill:#231f20"/><path d="M250.87,167.26a8.31,8.31,0,0,1-6.11-2.67c-14.32-15.58-37.4-24.68-63.32-25-17.61-.19-42.55,3.73-61.62,23.56a8.3,8.3,0,0,1-12-11.5c18-18.76,43-28.65,72.3-28.65h1.47c30.47.34,57.93,11.39,75.34,30.32a8.28,8.28,0,0,1-6.1,13.9Z"/><path d="M248.06,165.3l.17,0A.26.26,0,0,0,248.06,165.3Z" style="fill:#231f20"/><path d="M250.87,168.66l-.59-.09a4,4,0,0,0-.95-.06,10,10,0,0,0-2.62-1,6,6,0,0,1-1.57-.89,3.3,3.3,0,0,1-.61-.63l-.12-.17-.06-.09,0,0-.47-.5c-1.29-1.37-2.51-2.77-3.88-4l-1.74-.76A73.37,73.37,0,0,0,224,151c-1.25-.59-2.42-1.22-3.58-1.74l-3.26-1.45c-2.05-.81-3.74-1.56-4.94-2,.78.23,1.54.54,2.3.81.29,0-.2-.25-1.22-.65s-2.59-.83-4.38-1.38c-3.63-.94-8.27-2-11.67-2.47-1.28-.22-2.57-.36-3.72-.45s-2.14-.18-2.84-.2c-1.39,0-1.58.06.64.31a104.21,104.21,0,0,0-23.87.08,95.42,95.42,0,0,0-12.54,2.45,80.32,80.32,0,0,0-11.95,4.27l-2.81,1.33c-.93.44-1.8,1-2.7,1.46-1.81.93-3.46,2.07-5.12,3.1-.84.52-1.59,1.14-2.37,1.69s-1.56,1.1-2.28,1.7l-2.12,1.77a26.57,26.57,0,0,0-2,1.78l-1.88,1.79-.92.87a10.86,10.86,0,0,1-1.08.94A9.42,9.42,0,0,1,106.22,152a9.35,9.35,0,0,1,.92-1.14l.93-.94,1.85-1.86c1.23-1.24,2.56-2.34,3.81-3.5a89.83,89.83,0,0,1,16.66-11.48c11.91-6.33,25.48-10.35,41.66-11.39l-.37.1c2.72-.21,6.14-.24,9.72-.22l5.44.23c1.81.11,3.59.31,5.29.46s3.29.45,4.75.64,2.75.46,3.83.69c2.16.46,3.47.78,3.43.92a134.89,134.89,0,0,1,15.65,4,113.53,113.53,0,0,1,13.91,5.73,93.76,93.76,0,0,1,13.56,8.38l3.41,2.72c1.13,1,2.25,2,3.41,3.06s2.23,2.25,3.39,3.43a10.44,10.44,0,0,1,1.71,2.16,10,10,0,0,1,1.08,2.75,9.73,9.73,0,0,0-1.45-3.11,9.22,9.22,0,0,0-1.08-1.29l-1.09-1c.48.52.92.93,1.33,1.42a9,9,0,0,1,1,1.46,10.1,10.1,0,0,1,1,2.45,12.89,12.89,0,0,1,.33,2.45c0,.71.14,0,.13.6,0,.16-.12,0-.19,0-.2.42,0,.71,0,1.08l-.14-.18c-.28.7-.48,1.61-.82,2.57a6.39,6.39,0,0,1-1.61,2.6c.21-.29-.06-.28-.22-.24a2.82,2.82,0,0,1-1.16,1.54,13.74,13.74,0,0,1-1.67,1c.14-.13.26-.28.38-.41a1.7,1.7,0,0,1-1.42.43,2.33,2.33,0,0,0-1.44.2,7.24,7.24,0,0,0,.95.15c-.65.06-1.19.22-1,.45-.79-.11-.15-.39-1.27-.4a7.79,7.79,0,0,0,2.53-3.32c.48,0-.36.52.23.33a6.32,6.32,0,0,0,1-.9l0,.06a8.05,8.05,0,0,1,1.75-1.54A3.26,3.26,0,0,0,257.7,161V161c.11.08.4-.21.4-.5-.09-.11-.16.06-.32.19a9.88,9.88,0,0,0,0-1.58v-.27c0-.1,0-.21,0-.31a6.79,6.79,0,0,0-.6-2.4,5.78,5.78,0,0,0-.63-1.1,4.6,4.6,0,0,0-.39-.51,4.4,4.4,0,0,0-.48-.52A85.71,85.71,0,0,0,245,144.54c1.93,1.43,2.44,1.83,2.15,1.54l-1-.84-.82-.69-1-.75c-2.8-2.19-7-4.78-7.29-5.15-2.62-1.36-1.91-.88-2-.84a5.67,5.67,0,0,1-1.22-.57c-.92-.52-2.64-1.27-5.58-2.69a115,115,0,0,0-25.45-8.12,124.4,124.4,0,0,0-24.33-2.26c-3.14.15-6.76.42-9.63.72s-5,.66-5.18.88a112,112,0,0,0-14,3l-3.15,1-1.55.48-1.52.56-3,1.13-3,1.28-1.51.65-1.49.74c-1,.5-2,1-3,1.52-2,1.12-4.11,2.26-6.2,3.65a87.76,87.76,0,0,0-13.3,10.45l-.54.38c-.58.64-1.26,1.36-2,2.14a7.18,7.18,0,0,0-1.56,2.38,6.86,6.86,0,0,0-.42,3,6.73,6.73,0,0,0,1,3,6.63,6.63,0,0,0,5,3,6.46,6.46,0,0,0,2.44-.28,6.14,6.14,0,0,0,1.63-.84,4.7,4.7,0,0,1-1.32.84c-.52.25-1,.36-.65.35a7,7,0,0,0,2.23-1,7.13,7.13,0,0,0,.93-.8l1-1c1.44-1.42,2.84-2.87,4.4-4.15l-1.49,1.34c-.45.43-.82.85-1.15,1.19a11,11,0,0,0-1.11,1.33c-.07.14.22-.06,1-.73l1.48-1.35,2.4-2c7.93-6.58-2.39,1.56,1.42-1.73l2.73-1.54,1.11-.84,1-.69,1.69-1.15c.94-.67,1.52-1.08,1.64-1.2.22-.28-1.46.49-5.45,3.14A76.28,76.28,0,0,1,147,143.66a91.37,91.37,0,0,1,18.91-4.72,103,103,0,0,1,18.89-.9,105.57,105.57,0,0,1,18,2.23c-.83-.09-1.67-.2-2.5-.27a92.67,92.67,0,0,1,20.33,6.1,69.86,69.86,0,0,1,15,8.66c.36.1,3,2,1.38.64,1.55,1.21,2.77,2.08,3.63,2.86l1.9,1.7a6.55,6.55,0,0,1,1.16,1.27,11.34,11.34,0,0,0,1.31,1.5l.84.86c.23.24.41.4.31.3l.24.1-.16-.06-.07,0h0s.06.08-.14-.12c-1.34-1.32-2.49-2.41-2.77-2.6l2.78,2.78c.08.07.12.08.18.13l.34.2c.23.12.47.23.7.33-.11.16.54,1,1.26,1.1.06-.09-.07-.28-.22-.37l.42.07c.06.16.12.33.19.5.24-.06.47-.14.69-.21l-.06.34c.48,0,.7-.42,1.05-.36A27.67,27.67,0,0,0,250.87,168.66Z" style="fill:#231f20"/><polygon points="249.54 165.61 249.53 165.69 249.66 165.64 249.54 165.61" style="fill:#231f20"/><path d="M244.49,166.22l-.36-.17c.2.14.4.28.61.41Z" style="fill:#231f20"/><path d="M145.37,199.9a8.29,8.29,0,0,1-5.67-14.34c8.75-8.21,14.52-12.34,25.57-15.12,13.3-3.34,27-2.83,37.54,1.39a80,80,0,0,1,20.36,12.47,8.29,8.29,0,0,1-10.9,12.5h0a63.27,63.27,0,0,0-15.62-9.57c-7.17-2.87-17.64-3.14-27.33-.71-7.12,1.79-10.54,3.87-18.28,11.14A8.27,8.27,0,0,1,145.37,199.9Z"/><path d="M143.66,198.32l.11,0A.11.11,0,0,0,143.66,198.32Z" style="fill:#231f20"/><path d="M145.37,201.29a2,2,0,0,0-.92-.06c-.29-.43-.91-.4-1.62-.51a3.27,3.27,0,0,1-1.05-.28,1.62,1.62,0,0,1-.43-.29l-.1-.09,0-.06,0,0-.37-.21a9.37,9.37,0,0,1-2.75-2.56,10.46,10.46,0,0,1-1.19-.72,9.75,9.75,0,0,1-1.25-6,9.64,9.64,0,0,1,2.53-5.55l.51-.52.46-.42.89-.79c.58-.52,1.14-1,1.66-1.43a27,27,0,0,1,2.65-2l-1.15,1c-.1.39,1.15-.73,2.93-2.18a39.86,39.86,0,0,1,6-4.22c2.75-1.67,5.67-3.12,3.07-2.09a63.65,63.65,0,0,1,14.21-4.2A72.11,72.11,0,0,1,185.13,167a56.1,56.1,0,0,1,14.32,2.37,48.46,48.46,0,0,1,10,4.5,92.44,92.44,0,0,1,9.51,5.73c1.46,1,2.89,2.06,4.27,3.16a12.7,12.7,0,0,1,2.08,2,9.93,9.93,0,0,1,1.46,2.6,9.6,9.6,0,0,1,.26,5.95,9.74,9.74,0,0,1-3.42,5.09,9.8,9.8,0,0,1-12.36-.36l1,.39h0l-.08-1.49-1,1.09h0l0,0-.06-.05-.13-.11-.28-.23-.6-.48-1.33-1c-.94-.7-2-1.43-3-2.15l.22.07a58.2,58.2,0,0,0-10.28-5.73c-3.56-1.45-6.73-1.9-6.66-2.19a44.7,44.7,0,0,0-9.42-.16,53.56,53.56,0,0,0-8.61,1.45,36.77,36.77,0,0,0-8.5,3.09,47.45,47.45,0,0,0-8.59,6.41c.83-.83,1.66-1.66,2.52-2.45a29.85,29.85,0,0,0-3.5,3.15c-.24.29.08.1-.12.32-.07,0-.09-.06-.13-.12-.29,0-.2.32-.3.48l-.07-.17a1.45,1.45,0,0,0-.54.37c-.19.2-.37.42-.58.66a4.28,4.28,0,0,1-1.42,1.17c.16-.15,0-.26-.14-.3-.15.75-1.48,1.1-1.94,1.31l.24-.29c-.86.58-.9-.38-1.76.09l.57.26c-.39,0-.71.09-.6.33-.47-.16-.09-.42-.76-.45a9,9,0,0,0,1.54-3c.3.11-.23.41.14.38a7.18,7.18,0,0,0,.67-.54l0,0c.25-.41.73-.43,1.28-.55a1.72,1.72,0,0,0,1.38-.83l0,.06c.08.12.37.08.47-.08s-.15-.07-.31-.08c.29-.43.48-.69.66-.91l.07-.09,0,0v0h0l.16-.15c.88-.81,1.78-1.62,2.75-2.46a37.7,37.7,0,0,1,7.36-5.16c-1.35.75-1.66,1-1.43.92s1-.55,2.08-1a20.61,20.61,0,0,1,5.34-1.67c1.72-.57,1.2-.5,1.22-.58s.14-.12.78-.3a35.88,35.88,0,0,1,3.75-.88,50,50,0,0,1,16.58-.15,33.15,33.15,0,0,1,7.55,2.16,55,55,0,0,1,6.54,3.38c3.5,1.69,7.5,4.82,7.89,4.75.5.39,1,.75,1.49,1.2l-1.07-.4h.59l.47.39a6.88,6.88,0,0,0,3,1.48,6.67,6.67,0,0,0,3.32-.17,6.6,6.6,0,0,0,2.85-10.83c-.22-.19-.37-.38-.63-.59l-.78-.64c-.53-.43-1.07-.85-1.61-1.27-1.09-.82-2.21-1.63-3.34-2.41l-.26-.31c-1.81-1-4.57-2.83-7.31-4.38a38.54,38.54,0,0,0-6.8-3.22c.44,0,2,.6,1.63.33a42.27,42.27,0,0,0-6.55-2.09,20.45,20.45,0,0,0,3,.57c.18,0-.67-.52-3.44-1.25-5.87-1,1.55.54-1.32.14-.56-.25-1.12-.5-1.69-.72a20.74,20.74,0,0,0-2.69-.33,3.66,3.66,0,0,0-1.17,0c-.21.11.83.32,3.51.83a64.08,64.08,0,0,0-22.45.25,68.54,68.54,0,0,0-10.48,2.77,47.76,47.76,0,0,0-4.78,2.06,46.12,46.12,0,0,0-4.38,2.57l1.06-1a75.39,75.39,0,0,0-9.58,7.62l-1.12,1-.55.5c-.18.17-.29.3-.44.44a7,7,0,0,0-1.91,5.45c0,.19.56,1.65.4.66a7.27,7.27,0,0,0,1.59,2.91,3.91,3.91,0,0,1,.49.65,1.91,1.91,0,0,0,.69.66,3.34,3.34,0,0,0,.73.41.62.62,0,0,0,.17,0l-.12,0h-.08l-.1,0a15.34,15.34,0,0,1-1.62-.95,7.18,7.18,0,0,0,1.63,1.1l.14,0,.24,0,.48,0c-.07.17.37.75.81.67a.29.29,0,0,0-.13-.3l.26,0,.11.45c.15-.1.29-.21.42-.31l0,.35c.29,0,.42-.48.63-.45C145.2,199.3,145.27,200.3,145.37,201.29Z" style="fill:#231f20"/><polygon points="144.57 198.32 144.56 198.41 144.64 198.34 144.57 198.32" style="fill:#231f20"/><polygon points="141.34 200.38 141.07 200.39 141.51 200.48 141.34 200.38" style="fill:#231f20"/><path d="M167.76,217.8c-1.27,6.36.37,13.42,6.36,16.07a20.52,20.52,0,0,0,9.76,1.69,15.72,15.72,0,0,0,4.64-1.05,8.56,8.56,0,0,0,3.33-2.73c5-6.46,2.56-17.27-4.75-20.93S169.92,209.91,167.76,217.8Z"/><path d="M166.27,218.4l0-.05S166.24,218.39,166.27,218.4Z" style="fill:#231f20"/><path d="M169.13,218.07s-.21.17-.08.29c-.4,0-.33.27-.28.51a.93.93,0,0,1,0,.37.51.51,0,0,1-.11.16l0,0,0,0h0l0,.14a11.51,11.51,0,0,0-.24,1.28l.58.44a18.23,18.23,0,0,0,.33,3.84c.21,1.2.53,2.2.57,2.81a4.4,4.4,0,0,1-.21-.5c-.26,0,0,.56.4,1.28a17.49,17.49,0,0,0,1.62,2.07c.83.8,1.93,1.15,1.23.52.27.26.61.46.93.71s.71.4,1.11.6a18.51,18.51,0,0,0,2.65,1,20.35,20.35,0,0,0,5.79.64,11.35,11.35,0,0,0,1.36-.09c.45-.06.9-.14,1.34-.24a13.65,13.65,0,0,0,2.34-.7,9.45,9.45,0,0,0,2.94-2.34A10.44,10.44,0,0,0,193,226.6a13.15,13.15,0,0,0,0-4.38,14.4,14.4,0,0,0-4.08-8.13h.1a11.43,11.43,0,0,0-3.5-2.52c-.66-.33-1.29-.58-1.74-.8s-.73-.35-.71-.48a15.76,15.76,0,0,0-1.88-.19,14.21,14.21,0,0,0-1.76.11,10.13,10.13,0,0,0-1.66.31,11.14,11.14,0,0,0-1.58.5c-.52.16-1,.45-1.53.67a15.65,15.65,0,0,0-1.48.92,11.13,11.13,0,0,0-2.81,2.7l.28-.57a6.22,6.22,0,0,1,.35-.54,4.54,4.54,0,0,0-.79,1,1.36,1.36,0,0,0-.21.41c0,.14.11.07.07.18s-.1-.05-.16-.09,0,.17,0,.25l-.14-.11c-.43.09,0,.8-.26,1.06,0-.08-.2-.12-.29-.13.45.36.22.67.29.85l-.18-.16c.25.39-.64.05-.39.44l.37-.06c-.13.08-.06.21.19.25-.23.07-.42-.1-.54.07a22.49,22.49,0,0,1-2.45-1.57c.22-.07.28.28.39.11l-.16-.51,0,0c-.45-.65,1.08-.7.89-1.34l0,0c.12.07.32.07.31,0s-.14-.05-.27-.07a1.8,1.8,0,0,1,0-.54l0,0v0h0l.06-.09a12.79,12.79,0,0,1,1-1.34,11,11,0,0,1,1.27-1.3c.24-.22.49-.44.76-.66l.9-.62c-1,.82-.49.51.33,0,.42-.23,1-.44,1.37-.62a1.75,1.75,0,0,1,.87-.18c.68-.37.45-.36.44-.44s.19-.26,1.87-.76a15.63,15.63,0,0,1,7,.11,15.42,15.42,0,0,1,5.79,2.77,9.85,9.85,0,0,1,2.08,1.54c.55.54,1,1,1.12.91.45.56.78,1.15,1.15,1.68s.6,1.11.84,1.66a18.71,18.71,0,0,1,1.09,3.35,17,17,0,0,1,.38,3.76,15.6,15.6,0,0,1-.71,4.6l-.17.14a5.18,5.18,0,0,1-.55,1.71c-.15.32-.33.64-.51,1s-.44.61-.66.91a22.11,22.11,0,0,1-2.48,2.62c.09-.24.63-.8.41-.76a8.5,8.5,0,0,1-2.82,1.88c.72-.32,1.25-.78,1.24-.91s-.45.08-1.66.49c-2.42,1,.75,0-.41.57-.29,0-.57-.08-.86-.14a4.39,4.39,0,0,0-1.6.61c-.06.13.43.21,1.64,0a17.55,17.55,0,0,1-2.56.47c-.47.05-.88.06-1.28.07s-.83,0-1.24,0a22.73,22.73,0,0,1-4.93-.57,20,20,0,0,1-2.35-.71c-.38-.14-.76-.28-1.12-.44s-.77-.37-1.14-.56a11.65,11.65,0,0,1-3.75-3.27l.61.38a12.62,12.62,0,0,1-2.66-4.93,13.88,13.88,0,0,1-.56-4.4c-.07-.09-.21-.91-.28-.37-.18-2,0-2.11.09-2.26a.92.92,0,0,0,.16-.48,2.8,2.8,0,0,0,0-.44L166,219l0,.06,0,0h0s0,0,0,.06a2.82,2.82,0,0,0,.06,1l.07-1,0-.07-.06-.13-.12-.25c.18,0,.63-.21.5-.43a.32.32,0,0,0-.27.06l-.07-.14.44,0-.34-.25.35.06c-.05-.15-.48-.29-.43-.39Z" style="fill:#231f20"/><polygon points="166.19 217.92 166.27 217.93 166.21 217.88 166.19 217.92" style="fill:#231f20"/><polygon points="168.88 219.4 168.99 219.48 168.91 219.33 168.88 219.4" style="fill:#231f20"/><path d="M120.52,233.09c-7.81,0-15-.11-22.4-.22-15-.22-32.07-.47-58.09.14l-.16-6.63c26.14-.62,43.25-.36,58.35-.14,13.81.2,26.86.4,44.61-.1l.19,6.63C134.67,233,127.36,233.09,120.52,233.09Z"/><path d="M118.39,231.7l.12,0A.11.11,0,0,0,118.39,231.7Z" style="fill:#231f20"/><path d="M120.52,234.48s-.56-.18-.82,0c-.29-.4-.87-.3-1.51-.21a4.51,4.51,0,0,1-1,0,1.78,1.78,0,0,1-.47-.09l-.12,0,0,0,0,0-.39,0-3.5-.17-1.14.59c-6.88-.08-15.71,0-18.93-.55l1.53,0c.69-.46-6.88-.11-11.16-.25-3.25,0-6.5.31-3.71.42-6-.14-13-.17-19.89-.12l-10.13.11-10.46.17c-.06-3.54-.11-6.75-.15-9.14l4.6-.06h2.91c1.8,0,3.32,0,4.63.08,18.32-.5,32.18-.86,52-.48l-.24.07c6.67.2,20,.42,20,.9,3.77,0,7.17-.15,10.48-.28L144,224.9c.06,1.43.13,2.88.2,4.4,0,.56,0,1.13.08,1.71,0,1,.07,2,.11,3.09l-7.54.15-7.12.06,3.69-.24c-6.79,0-4.63.2-5.26.27-.09,0,0-.11,0-.18-.24-.17-.38.1-.58.15l.08-.17c-.81-.33-2.07.37-3.11.3.19-.05.09-.24,0-.32-.42.56-1.59.45-2,.58l.27-.22c-.85.38-.73-.58-1.57-.2l.48.32c-.34-.09-.63,0-.55.27-.4-.18,0-.43-.65-.48l2-2.86c.33.18-.38.36.07.4l1-.33-.06,0c.94-.62,2.48.65,3.66.2l-.05,0c0,.14.21.31.4.25s-.06-.15-.17-.26a10.78,10.78,0,0,1,1.13-.24h.43l3.75-.07,8.64-.16a5.72,5.72,0,0,1-.71.05l-.56,0c-.23,0-.19,0,0,.05s.64,0,1.16,0l.6,0c0-.16,0-.33,0-.5,0-.47,0-.93,0-1.33a8.86,8.86,0,0,1,.11-1.71c-.09-.66-.14-.56-.2-.54s-.09.13-.15,0l-.39.08h-.26l-.65,0-1.61.07c-11.66.3-22.41,0-32.07-.22-3.92.21-9.06.06-9.33.38-13.13-.13-20.46-.22-36.56,0l-.42-.11c-4.33.43-14,0-17,.29.44-.15,2.16-.25,1.72-.35l-2.56.1-.64,0h-.24l-.23,0,0,.22,0,.09v.16l0,.27a1.51,1.51,0,0,0-.07-.56l-.08-.27c.16-.11.43-.27-.36-.34,0,.12,0,.28,0,.49v.41l0,.88c0,.78.1,1.34.13,1.73s0,.4.07.46,0,0,0,0a.73.73,0,0,0,0-.3c0-.83,0-2.07.18-.54l-.08.47,0,.24a.36.36,0,0,1,0,.09,2.51,2.51,0,0,0-.17.45V232c.51,0,.66-.06,1.46-.13a3.25,3.25,0,0,0,1-.18c.06-.06-.17-.12-.73-.16l-1,0-.2-.05v0L52,231.18,63.74,231c7.75-.09,15.29-.08,22.43,0l-1.53.22c4,0,8.67,0,13,.12s8.14.15,10.51.28c.21-.07,2.17-.18.9-.27,4.74-.12,5,0,5.35.08a4.47,4.47,0,0,0,1.2.12,10.44,10.44,0,0,0,1,0l.18-.08-.12.06-.06,0h0s.07,0-.14,0a16.75,16.75,0,0,0-2.33.14h2.43l.16,0,.29-.07.57-.14a1.18,1.18,0,0,0,1.2.43c0-.1-.12-.24-.25-.26l.32-.09.23.43.46-.37V232c.34-.07.47-.52.74-.49Z" style="fill:#231f20"/><polygon points="119.51 231.55 119.52 231.63 119.6 231.56 119.51 231.55" style="fill:#231f20"/><polygon points="116.83 234.41 116.62 234.53 117 234.43 116.83 234.41" style="fill:#231f20"/><path d="M25.65,204l-.13-6.64c23.23-.43,57.05-.69,82.31-.08l-.16,6.63C82.51,203.31,48.8,203.56,25.65,204Z"/><path d="M27,202.24l0,.1A.09.09,0,0,0,27,202.24Z" style="fill:#231f20"/><path d="M24.25,204s.17-.45,0-.66c.39-.24.28-.71.18-1.23a3,3,0,0,1-.08-.79,1.29,1.29,0,0,1,.08-.38l0-.09,0,0v-.34c0-.5,0-1,0-1.49l0-2.12-.18-.58a5.5,5.5,0,0,1,.76-.44l9.74-.16a50.68,50.68,0,0,1,6.57.25H40.25c-.55.47,5.58-.06,9,0,2.63-.07,5.27-.39,3-.47,14.81.16,36.82-.09,46,.63l10.67,0c0,3.11,0,6.13-.07,9.06l-4.37,0H95.25l-13.48,0,.18-.07c-5.39-.12-16.22-.26-16.19-.76-11.53.16-18.88.91-32.63.89l3-.24c-5.49,0-3.74.2-4.24.27-.08,0,0-.11,0-.18-.2-.17-.31.1-.46.15l.06-.17c-.66-.33-1.67.36-2.51.3.15-.06.07-.25,0-.33-.33.57-1.27.45-1.62.59l.21-.22c-.68.38-.6-.58-1.27-.2l.39.32c-.27-.1-.51,0-.44.27-.32-.18,0-.43-.53-.48l1.54-2.86c.27.18-.31.36.06.4l.78-.33,0,0c.75-.62,2,.65,3,.19l-.05,0a.28.28,0,0,0,.34.26c.05-.1-.05-.15-.15-.27a8.63,8.63,0,0,1,.92-.23l.09,0h.26l3-.07,7.27-.13c-4.89.27,4.53.13,5,.42,3-.22-1.71-.29,4.92-.5,9.44-.11,18.13.12,26,.25,3.18-.26,7.35-.15,7.56-.48l10.77.06,9.07.11c0,1.56.09-4.77,0-3.16h0s0-.08-.05-.11c-3.51.3-11.31-.41-13.75-.2.37-.14,1.76-.18,1.41-.29l-5.94.07c2.81-.1,4.41-.47-.47-.55-5.08.25,1.4.2-1.08.41L84.6,198c-3.84,0-4.91.44-.23.58-13.07-.08-26,.15-37.62.21l1.23-.25c-6.45.15-15.16.27-19,.13-.17.07-1.75.23-.72.29l-.9.06-.07,0-.05,0c0,.07-.06.06-.12.08s-.09.2-.09.84a6.86,6.86,0,0,0,0,.85l.09.14-.06-.09,0-.05,0,0a.49.49,0,0,1,0-.11c0-.48-.07-.91-.1-1.24s-.06-.33-.09-.39l.07,1.71a.33.33,0,0,0,0,.13l.08.23.15.47a.86.86,0,0,0-.4,1,.29.29,0,0,0,.25-.21l.1.25-.42.21.38.35-.36,0c.08.26.53.36.51.58Z" style="fill:#231f20"/><polygon points="27.16 203.15 27.07 203.15 27.15 203.22 27.16 203.15" style="fill:#231f20"/><polygon points="24.23 201.03 24.11 200.87 24.21 201.18 24.23 201.03" style="fill:#231f20"/><rect x="1.27" y="168" width="78.1" height="6.63"/><path d="M77.72,173.26l.1,0A.09.09,0,0,0,77.72,173.26Z" style="fill:#231f20"/><path d="M79.37,176s-.43-.18-.63,0c-.23-.39-.68-.29-1.17-.19a3.21,3.21,0,0,1-.75.06,1.18,1.18,0,0,1-.37-.09l-.08-.05-.05,0,0,0H76l-2.7-.14-.88.6c-5.32,0-12.13.11-14.63-.34H59c.53-.46-5.32,0-8.63-.12-2.52.05-5,.36-2.87.45-14.12-.31-35.1,0-43.89-.54l-3.32,0c-.05-3.12-.09-6.13-.13-8.78l16.17-.32c5-.09,10.25-.15,16.15-.12l-.18.07c5.15.08,15.48.24,15.46.75,5.5-.06,10-.27,14.78-.43,2.39-.07,4.84-.14,7.52-.18l4.2,0,5.64,0-2.41.1-1.42.09,2.54,0,1.94,0c0,1.63.17.57.21,1.08,0,.13-.11.1-.18.13-.18.39.1.43.15.69l-.18-.05a2.83,2.83,0,0,0-.09.87l0,.23,0,.15.08.32a3.58,3.58,0,0,1,.23,1.26c0-.14-.25-.07-.33,0,.57.33.43,1.23.56,1.57l-.22-.21c.37.65-.59.56-.22,1.21l.33-.37c-.1.26,0,.49.26.42-.19.31-.43,0-.48.5l-2.84-1.52c.18-.25.35.3.4,0l-.31-.76,0,.05c-.31-.37-.14-.85.05-1.35a4.5,4.5,0,0,0,.25-.76c0-.24,0-.55-.06-.55h0c.14,0,.31-.13.26-.19s-.15.07-.27.13a.86.86,0,0,0-.22-.16h0v-.08H76.64l-6.92,0c4.66-.21-4.33-.18-4.79-.47-2.85.19,1.63.3-4.7.46-9,0-17.29-.22-24.75-.33-3,.26-7,.19-7.21.51L3,169.75v0H2.91c0-.05,0,.17,0,.34l0,.54c0,.38,0,.78,0,1.21,0,.22,0,.44,0,.66v.33H3a0,0,0,0,0,0,0s0,0,0,0l.6,0L6,173c1.45,0,2.69,0,3.42,0-.35.14-1.68.2-1.35.31l5.67-.13c-2.68.12-4.2.5.46.55,4.85-.29-1.34-.2,1-.43l1.46.38c3.66,0,4.69-.47.21-.58,12.49,0,24.81-.17,35.93-.11l-1.18.24c6.16-.09,14.48-.09,18.13.13.17-.07,1.69-.2.7-.28,3.67-.17,3.87-.07,4.15,0a2.84,2.84,0,0,0,.92.11c.26,0,1,0,.81,0l.14-.09-.09.06,0,0h0s.05,0-.11,0a10.25,10.25,0,0,0-1.8.16l1.88,0,.12,0,.22-.07.45-.15a.82.82,0,0,0,.92.43.26.26,0,0,0-.18-.26l.24-.09.18.42.35-.37v.35c.25-.07.36-.52.56-.49Z" style="fill:#231f20"/><polygon points="78.59 173.11 78.59 173.19 78.66 173.12 78.59 173.11" style="fill:#231f20"/><polygon points="76.51 175.99 76.36 176.11 76.65 176.01 76.51 175.99" style="fill:#231f20"/></svg>